<svg width="152" height="98" viewBox="0 0 152 98" fill="none" xmlns="http://www.w3.org/2000/svg">
<g clip-path="url(#clip0_31_7)">
<path fill-rule="evenodd" clip-rule="evenodd" d="M0 62.7636V62.7636L0.353504 62.4315L0.709352 62.1015L1.06754 61.7735L1.42807 61.4476L1.79094 61.1237L2.15613 60.8019L2.52365 60.4821L2.89349 60.1643L3.26565 59.8486L3.64011 59.5349L4.01689 59.2232L4.39596 58.9136L4.77732 58.606L5.16098 58.3004L5.54691 57.9967L5.93511 57.6951L6.32559 57.3955L6.71832 57.0979L7.1133 56.8022L7.51053 56.5085L7.90999 56.2168L8.31167 55.927L8.71558 55.6392L9.12169 55.3533L9.53 55.0693L9.9405 54.7873L10.3532 54.5072L10.768 54.229L11.1851 53.9527L11.6042 53.6782L12.0255 53.4057L12.4489 53.135L12.8745 52.8662L13.3021 52.5992L13.7319 52.3341L14.1637 52.0708L14.5976 51.8093L15.0335 51.5496L15.4715 51.2917L15.9115 51.0356L16.3535 50.7813L16.7976 50.5287L17.2436 50.2779L17.6916 50.0288L18.1416 49.7815L18.5935 49.5358L19.0473 49.2918L19.5031 49.0496L19.9607 48.809L20.4202 48.57L20.8817 48.3327L21.3449 48.097L21.81 47.863L22.277 47.6305L22.7457 47.3996L23.2162 47.1703L23.6885 46.9426L24.1626 46.7164L24.6384 46.4917L25.1159 46.2686L25.5951 46.0469L26.076 45.8267L26.5585 45.608L27.0427 45.3907L27.5286 45.1749L28.016 44.9604L28.5051 44.7474L28.9957 44.5358L29.4879 44.3255L29.9816 44.1165L30.4768 43.9089L30.9735 43.7027L31.4717 43.4977L31.9714 43.2939L32.4725 43.0915L32.9749 42.8903L33.4788 42.6903L33.9841 42.4915L34.4907 42.2939L34.9987 42.0975L35.5079 41.9022L36.0185 41.7081L36.5303 41.515L37.0433 41.3231L37.5576 41.1322L38.0731 40.9424L38.5897 40.7536L39.1075 40.5659L39.6265 40.3791L40.1465 40.1933L40.6676 40.0085L41.1899 39.8246L41.7131 39.6416L42.2374 39.4595L42.7626 39.2783L43.2889 39.098L43.816 38.9184L44.3441 38.7397L44.8732 38.5618L45.403 38.3846L45.9338 38.2083L46.4654 38.0326L46.9977 37.8576L47.5309 37.6833L48.0648 37.5097L48.5994 37.3368L49.1348 37.1644L49.6708 36.9927L50.2075 36.8215L50.7449 36.6509L51.2828 36.4808L51.8213 36.3113L52.3604 36.1422L52.9001 35.9736L53.4402 35.8055L53.9808 35.6377L54.5219 35.4704L55.0634 35.3035L55.6053 35.1369L56.1476 34.9707L56.6903 34.8047L57.2333 34.6391L57.7766 34.4737L58.3202 34.3086L58.864 34.1437L59.4081 33.9791L59.9523 33.8145L60.4968 33.6502L61.0414 33.486L61.5861 33.3219L62.131 33.1579L62.6759 32.9939L63.2209 32.83L63.7659 32.6662L64.3109 32.5023L64.8558 32.3384L65.4008 32.1744L65.9456 32.0104L66.4903 31.8463L67.0349 31.6821L67.5794 31.5178L68.1237 31.3533L68.6677 31.1886L69.2116 31.0237L69.7552 30.8586L70.2985 30.6932L70.8415 30.5276L71.3841 30.3616L71.9264 30.1954L72.4684 30.0288L73.0099 29.8619L73.5509 29.6946L74.0916 29.5268L74.6317 29.3587L75.1713 29.1901L75.7104 29.021L76.2489 28.8515L76.7869 28.6814L77.3242 28.5108L77.8609 28.3396L78.3969 28.1679L78.9323 27.9955L79.4669 27.8226L80.0009 27.649L80.534 27.4747L81.0664 27.2997L81.598 27.1241L82.1287 26.9477L82.6586 26.7705L83.1876 26.5926L83.7157 26.4139L84.2429 26.2343L84.7691 26.054L85.2944 25.8728L85.8186 25.6907L86.3419 25.5077L86.8641 25.3238L87.3852 25.139L87.9053 24.9532L88.4242 24.7664L88.942 24.5787L89.4587 24.3899L89.9742 24.2001L90.4884 24.0092L91.0015 23.8173L91.5133 23.6242L92.0238 23.4301L92.5331 23.2348L93.041 23.0384L93.5476 22.8408L94.0529 22.642L94.5568 22.442L95.0593 22.2408L95.5604 22.0384L96.06 21.8346L96.5582 21.6297L97.0549 21.4234L97.5502 21.2158L98.0439 21.0068L98.536 20.7965L99.0267 20.5849L99.5157 20.3719L100.003 20.1574L100.489 19.9416L100.973 19.7243L101.456 19.5056L101.937 19.2854L102.416 19.0638L102.893 18.8406L103.369 18.6159L103.843 18.3897L104.316 18.162L104.786 17.9327L105.255 17.7018L105.722 17.4693L106.187 17.2353L106.65 16.9996L107.111 16.7623L107.571 16.5233L108.029 16.2827L108.484 16.0405L108.938 15.7965L109.39 15.5508L109.84 15.3035L110.288 15.0544L110.734 14.8036L111.178 14.551L111.62 14.2967L112.06 14.0406L112.498 13.7827L112.934 13.523L113.368 13.2615L113.8 12.9982L114.23 12.7331L114.657 12.4661L115.083 12.1973L115.506 11.9266L115.928 11.6541L116.347 11.3796L116.764 11.1033L117.179 10.8251L117.591 10.545L118.002 10.263L118.41 9.97902L118.816 9.69314L119.22 9.40531L119.622 9.11554L120.021 8.82381L120.418 8.53011L120.813 8.23445L121.206 7.9368L121.597 7.63718L121.985 7.33556L122.371 7.03194L122.754 6.72633L123.136 6.4187L123.515 6.10906L123.892 5.79739L124.266 5.48371L124.638 5.16799L125.008 4.85024L125.376 4.53045L125.741 4.20861L126.104 3.88473L126.464 3.5588L126.822 3.23081L127.178 2.90077" fill="black"/>
<path fill-rule="evenodd" clip-rule="evenodd" d="M17.8217 71.906V71.906L18.1753 71.5739L18.5311 71.2438L18.8893 70.9158L19.2498 70.5899L19.6127 70.266L19.9779 69.9442L20.3454 69.6244L20.7152 69.3066L21.0874 68.9909L21.4619 68.6772L21.8386 68.3656L22.2177 68.0559L22.5991 67.7483L22.9827 67.4427L23.3687 67.1391L23.7569 66.8375L24.1473 66.5378L24.5401 66.2402L24.935 65.9445L25.3323 65.6508L25.7317 65.3591L26.1334 65.0693L26.5373 64.7815L26.9434 64.4956L27.3517 64.2117L27.7623 63.9296L28.1749 63.6495L28.5898 63.3713L29.0068 63.095L29.426 62.8206L29.8473 62.548L30.2707 62.2774L30.6962 62.0085L31.1239 61.7416L31.5536 61.4764L31.9854 61.2131L32.4193 60.9516L32.8553 60.692L33.2932 60.4341L33.7333 60.178L34.1753 59.9236L34.6193 59.6711L35.0653 59.4202L35.5133 59.1712L35.9633 58.9238L36.4152 58.6781L36.869 58.4342L37.3248 58.1919L37.7825 57.9513L38.242 57.7123L38.7034 57.475L39.1667 57.2394L39.6318 57.0053L40.0987 56.7728L40.5674 56.542L41.038 56.3127L41.5103 56.0849L41.9843 55.8587L42.4601 55.634L42.9376 55.4109L43.4168 55.1892L43.8977 54.969L44.3803 54.7503L44.8645 54.533L45.3503 54.3172L45.8378 54.1028L46.3268 53.8897L46.8175 53.6781L47.3096 53.4678L47.8033 53.2589L48.2986 53.0513L48.7953 52.845L49.2935 52.64L49.7931 52.4363L50.2942 52.2338L50.7967 52.0326L51.3006 51.8326L51.8058 51.6338L52.3125 51.4362L52.8204 51.2398L53.3297 51.0445L53.8402 50.8504L54.352 50.6574L54.8651 50.4654L55.3793 50.2746L55.8948 50.0848L56.4115 49.896L56.9293 49.7082L57.4482 49.5215L57.9683 49.3357L58.4894 49.1508L59.0116 48.9669L59.5348 48.7839L60.0591 48.6019L60.5844 48.4206L61.1106 48.2403L61.6378 48.0608L62.1659 47.8821L62.6949 47.7041L63.2248 47.527L63.7555 47.3506L64.2871 47.1749L64.8195 47L65.3526 46.8257L65.8865 46.6521L66.4212 46.4791L66.9566 46.3068L67.4926 46.135L68.0293 45.9638L68.5666 45.7932L69.1046 45.6232L69.6431 45.4536L70.1822 45.2845L70.7218 45.1159L71.2619 44.9478L71.8025 44.7801L72.3436 44.6128L72.8851 44.4458L73.4271 44.2792L73.9694 44.113L74.512 43.9471L75.055 43.7814L75.5983 43.6161L76.1419 43.451L76.6857 43.2861L77.2298 43.1214L77.7741 42.9569L78.3185 42.7925L78.8632 42.6283L79.4079 42.4642L79.9527 42.3002L80.4977 42.1363L81.0426 41.9724L81.5876 41.8085L82.1326 41.6446L82.6776 41.4807L83.2225 41.3168L83.7673 41.1528L84.3121 40.9887L84.8567 40.8244L85.4011 40.6601L85.9454 40.4956L86.4895 40.3309L87.0333 40.166L87.5769 40.0009L88.1202 39.8355L88.6632 39.6699L89.2059 39.504L89.7482 39.3377L90.2901 39.1712L90.8316 39.0042L91.3727 38.8369L91.9133 38.6692L92.4534 38.501L92.9931 38.3324L93.5321 38.1634L94.0707 37.9938L94.6086 37.8237L95.1459 37.6531L95.6826 37.482L96.2187 37.3102L96.754 37.1379L97.2887 36.9649L97.8226 36.7913L98.3558 36.617L98.8881 36.4421L99.4197 36.2664L99.9504 36.09L100.48 35.9128L101.009 35.7349L101.537 35.5562L102.065 35.3767L102.591 35.1963L103.116 35.0151L103.64 34.833L104.164 34.65L104.686 34.4661L105.207 34.2813L105.727 34.0955L106.246 33.9088L106.764 33.721L107.28 33.5322L107.796 33.3424L108.31 33.1515L108.823 32.9596L109.335 32.7666L109.846 32.5724L110.355 32.3772L110.863 32.1807L111.369 31.9831L111.875 31.7843L112.379 31.5844L112.881 31.3831L113.382 31.1807L113.882 30.977L114.38 30.772L114.877 30.5657L115.372 30.3581L115.866 30.1492L116.358 29.9389L116.848 29.7272L117.337 29.5142L117.825 29.2998L118.311 29.0839L118.795 28.8667L119.278 28.6479L119.758 28.4278L120.238 28.2061L120.715 27.9829L121.191 27.7582L121.665 27.532L122.137 27.3043L122.608 27.075L123.077 26.8441L123.543 26.6117L124.009 26.3776L124.472 26.1419L124.933 25.9046L125.393 25.6657L125.85 25.4251L126.306 25.1828L126.76 24.9388L127.212 24.6932L127.662 24.4458L128.11 24.1967L128.556 23.9459L129 23.6933L129.442 23.439L129.882 23.1829L130.32 22.925L130.756 22.6653L131.19 22.4038L131.622 22.1405L132.051 21.8754L132.479 21.6084L132.905 21.3396L133.328 21.0689L133.749 20.7964L134.168 20.522L134.585 20.2457L135 19.9675L135.413 19.6873L135.823 19.4053L136.232 19.1214L136.638 18.8355L137.042 18.5476L137.444 18.2579L137.843 17.9661L138.24 17.6724L138.635 17.3768L139.028 17.0791L139.418 16.7795L139.807 16.4779L140.193 16.1743L140.576 15.8687L140.958 15.561L141.337 15.2514L141.713 14.9397L142.088 14.626L142.46 14.3103L142.83 13.9926L143.197 13.6728L143.563 13.3509L143.925 13.0271L144.286 12.7011L144.644 12.3731L145 12.0431" fill="black"/>
<path fill-rule="evenodd" clip-rule="evenodd" d="M17.8217 89.0993V89.0993L18.1753 88.7672L18.5311 88.4372L18.8893 88.1092L19.2498 87.7832L19.6127 87.4594L19.9779 87.1375L20.3454 86.8177L20.7152 86.5L21.0874 86.1843L21.4619 85.8706L21.8386 85.5589L22.2177 85.2493L22.5991 84.9416L22.9827 84.636L23.3687 84.3324L23.7569 84.0308L24.1473 83.7312L24.5401 83.4335L24.935 83.1379L25.3323 82.8442L25.7317 82.5524L26.1334 82.2627L26.5373 81.9748L26.9434 81.6889L27.3517 81.405L27.7623 81.123L28.1749 80.8428L28.5898 80.5646L29.0068 80.2883L29.426 80.0139L29.8473 79.7414L30.2707 79.4707L30.6962 79.2019L31.1239 78.9349L31.5536 78.6698L31.9854 78.4065L32.4193 78.145L32.8553 77.8853L33.2932 77.6274L33.7333 77.3713L34.1753 77.117L34.6193 76.8644L35.0653 76.6136L35.5133 76.3645L35.9633 76.1171L36.4152 75.8715L36.869 75.6275L37.3248 75.3852L37.7825 75.1446L38.242 74.9057L38.7034 74.6684L39.1667 74.4327L39.6318 74.1986L40.0987 73.9662L40.5674 73.7353L41.038 73.506L41.5103 73.2783L41.9843 73.0521L42.4601 72.8274L42.9376 72.6042L43.4168 72.3825L43.8977 72.1624L44.3803 71.9436L44.8645 71.7264L45.3503 71.5105L45.8378 71.2961L46.3268 71.0831L46.8175 70.8714L47.3096 70.6611L47.8033 70.4522L48.2986 70.2446L48.7953 70.0383L49.2935 69.8333L49.7931 69.6296L50.2942 69.4272L50.7967 69.2259L51.3006 69.026L51.8058 68.8272L52.3125 68.6296L52.8204 68.4332L53.3297 68.2379L53.8402 68.0437L54.352 67.8507L54.8651 67.6588L55.3793 67.4679L55.8948 67.2781L56.4115 67.0893L56.9293 66.9015L57.4482 66.7148L57.9683 66.529L58.4894 66.3442L59.0116 66.1603L59.5348 65.9773L60.0591 65.7952L60.5844 65.614L61.1106 65.4336L61.6378 65.2541L62.1659 65.0754L62.6949 64.8975L63.2248 64.7203L63.7555 64.5439L64.2871 64.3682L64.8195 64.1933L65.3526 64.019L65.8865 63.8454L66.4212 63.6724L66.9566 63.5001L67.4926 63.3283L68.0293 63.1572L68.5666 62.9866L69.1046 62.8165L69.6431 62.6469L70.1822 62.4779L70.7218 62.3093L71.2619 62.1411L71.8025 61.9734L72.3436 61.8061L72.8851 61.6392L73.4271 61.4726L73.9694 61.3063L74.512 61.1404L75.055 60.9748L75.5983 60.8094L76.1419 60.6443L76.6857 60.4794L77.2298 60.3147L77.7741 60.1502L78.3185 59.9859L78.8632 59.8216L79.4079 59.6575L79.9527 59.4935L80.4977 59.3296L81.0426 59.1657L81.5876 59.0018L82.1326 58.8379L82.6776 58.674L83.2225 58.5101L83.7673 58.3461L84.3121 58.182L84.8567 58.0178L85.4011 57.8534L85.9454 57.6889L86.4895 57.5242L87.0333 57.3593L87.5769 57.1942L88.1202 57.0289L88.6632 56.8632L89.2059 56.6973L89.7482 56.5311L90.2901 56.3645L90.8316 56.1975L91.3727 56.0302L91.9133 55.8625L92.4534 55.6944L92.9931 55.5258L93.5321 55.3567L94.0707 55.1871L94.6086 55.0171L95.1459 54.8465L95.6826 54.6753L96.2187 54.5035L96.754 54.3312L97.2887 54.1582L97.8226 53.9846L98.3558 53.8103L98.8881 53.6354L99.4197 53.4597L99.9504 53.2833L100.48 53.1062L101.009 52.9282L101.537 52.7495L102.065 52.57L102.591 52.3897L103.116 52.2084L103.64 52.0264L104.164 51.8434L104.686 51.6595L105.207 51.4746L105.727 51.2888L106.246 51.1021L106.764 50.9143L107.28 50.7255L107.796 50.5357L108.31 50.3449L108.823 50.1529L109.335 49.9599L109.846 49.7658L110.355 49.5705L110.863 49.3741L111.369 49.1765L111.875 48.9777L112.379 48.7777L112.881 48.5765L113.382 48.374L113.882 48.1703L114.38 47.9653L114.877 47.759L115.372 47.5514L115.866 47.3425L116.358 47.1322L116.848 46.9206L117.337 46.7075L117.825 46.4931L118.311 46.2773L118.795 46.06L119.278 45.8413L119.758 45.6211L120.238 45.3994L120.715 45.1763L121.191 44.9516L121.665 44.7254L122.137 44.4976L122.608 44.2683L123.077 44.0375L123.543 43.805L124.009 43.5709L124.472 43.3353L124.933 43.098L125.393 42.859L125.85 42.6184L126.306 42.3761L126.76 42.1322L127.212 41.8865L127.662 41.6391L128.11 41.3901L128.556 41.1392L129 40.8867L129.442 40.6323L129.882 40.3762L130.32 40.1183L130.756 39.8587L131.19 39.5972L131.622 39.3339L132.051 39.0687L132.479 38.8018L132.905 38.533L133.328 38.2623L133.749 37.9897L134.168 37.7153L134.585 37.439L135 37.1608L135.413 36.8807L135.823 36.5986L136.232 36.3147L136.638 36.0288L137.042 35.741L137.444 35.4512L137.843 35.1595L138.24 34.8658L138.635 34.5701L139.028 34.2725L139.418 33.9728L139.807 33.6712L140.193 33.3676L140.576 33.062L140.958 32.7544L141.337 32.4447L141.713 32.1331L142.088 31.8194L142.46 31.5037L142.83 31.1859L143.197 30.8661L143.563 30.5443L143.925 30.2204L144.286 29.8945L144.644 29.5665L145 29.2364" fill="black"/>
</g>
<defs>
<clipPath id="clip0_31_7">
<rect width="152" height="98" fill="white"/>
</clipPath>
</defs>
</svg>
