<svg width="150" height="60" viewBox="0 0 150 60" fill="none" xmlns="http://www.w3.org/2000/svg">
<g clip-path="url(#clip0_47_13)">
<path d="M11.6912 3.18609C9.01986 4.81582 8.36127 6.81773 9.3934 9.12961C10.6239 11.8866 14.3475 14.9934 19.7293 17.9187C30.4936 23.7693 47.869 28.8267 63.3269 29.5935L64.4074 29.6486L65.1032 29.9818L121.984 57.4477C127.654 57.9895 131.315 57.6521 133.218 56.898C135.136 56.1382 136.021 54.6709 134.6 52.3425L11.6917 3.18597L11.6912 3.18609ZM121.573 3.45703L89.7861 16.1719C86.2704 17.5779 86.24 19.125 88.0552 20.8154L88.8061 21.515L87.4327 22.0424L76.7578 26.1145L85.4279 29.5825L95.5628 25.3014L96.8812 24.7447L98.6296 25.0487C103.072 25.8145 107.286 25.7831 110.55 24.4774L142.337 11.7626L138.208 10.1109L117.535 18.3764L113.672 16.8275L134.335 8.5623L129.932 6.80039L109.268 15.0659L105.395 13.5169L126.059 5.25164L121.573 3.45703ZM61.7976 31.8238L7.47944 52.555C6.1391 54.7757 6.9978 56.1628 8.80717 56.8798C10.6171 57.5967 14.1181 57.9259 19.6013 57.3961L70.3494 35.9546L61.7976 31.8238Z" fill="black"/>
</g>
<defs>
<clipPath id="clip0_47_13">
<rect width="150" height="60" fill="white"/>
</clipPath>
</defs>
</svg>
