<svg width="40" height="150" viewBox="0 0 40 150" fill="none" xmlns="http://www.w3.org/2000/svg">
<g clip-path="url(#clip0_41_40)">
<path fill-rule="evenodd" clip-rule="evenodd" d="M10.196 0V0L10.4183 0.573975L10.6367 1.15154L10.8513 1.73268L11.0621 2.31737L11.269 2.90559L11.4722 3.49733L11.6717 4.09256L11.8674 4.69127L12.0595 5.29342L12.2478 5.89901L12.4325 6.50801L12.6136 7.12039L12.7911 7.73614L12.9649 8.35523L13.1353 8.97764L13.302 9.60335L13.4653 10.2323L13.6251 10.8645L13.7815 11.5L13.9344 12.1386L14.0839 12.7804L14.23 13.4254L14.3728 14.0735L14.5123 14.7246L14.6485 15.3789L14.7814 16.0361L14.9111 16.6964L15.0376 17.3597L15.161 18.0259L15.2812 18.695L15.3983 19.3671L15.5123 20.042L15.6233 20.7197L15.7312 21.4003L15.8362 22.0836L15.9383 22.7697L16.0374 23.4585L16.1337 24.1499L16.2271 24.8441L16.3177 25.5408L16.4055 26.2401L16.4906 26.942L16.573 27.6464L16.6527 28.3533L16.7298 29.0627L16.8043 29.7744L16.8762 30.4886L16.9456 31.2051L17.0125 31.924L17.077 32.6451L17.139 33.3684L17.1987 34.094L17.2561 34.8218L17.3111 35.5517L17.3639 36.2837L17.4145 37.0178L17.4628 37.7539L17.5091 38.492L17.5532 39.2321L17.5953 39.9741L17.6354 40.718L17.6734 41.4637L17.7096 42.2112L17.7438 42.9605L17.7762 43.7116L17.8067 44.4643L17.8355 45.2187L17.8626 45.9747L17.8879 46.7323L17.9116 47.4914L17.9337 48.2521L17.9542 49.0142L17.9733 49.7777L17.9908 50.5426L18.0069 51.3088L18.0216 52.0763L18.0349 52.8451L18.047 53.6151L18.0578 54.3863L18.0673 55.1586L18.0757 55.932L18.083 56.7065L18.0891 57.4819L18.0943 58.2584L18.0984 59.0358L18.1016 59.8141L18.1038 60.5932L18.1052 61.3731L18.1058 62.1538L18.1056 62.9352L18.1047 63.7173L18.1031 64.5L18.1008 65.2834L18.098 66.0672L18.0946 66.8516L18.0907 67.6365L18.0864 68.4218L18.0816 69.2074L18.0765 69.9934L18.0711 70.7798L18.0654 71.5663L18.0594 72.3531L18.0533 73.14L18.047 73.9271L18.0407 74.7143L18.0343 75.5015L18.0279 76.2887L18.0215 77.0759L18.0152 77.8629L18.0091 78.6499L18.0032 79.4367L17.9974 80.2232L17.992 81.0095L17.9869 81.7955L17.9821 82.5812L17.9778 83.3665L17.9739 84.1514L17.9705 84.9357L17.9677 85.7196L17.9654 86.5029L17.9638 87.2857L17.9629 88.0678L17.9627 88.8492L17.9633 89.6299L17.9647 90.4098L17.9669 91.1889L17.9701 91.9672L17.9743 92.7446L17.9794 93.521L17.9855 94.2965L17.9928 95.071L18.0012 95.8444L18.0107 96.6167L18.0215 97.3879L18.0336 98.1579L18.0469 98.9267L18.0616 99.6942L18.0777 100.46L18.0952 101.225L18.1143 101.989L18.1348 102.751L18.1569 103.512L18.1806 104.271L18.206 105.028L18.233 105.784L18.2618 106.539L18.2923 107.291L18.3247 108.042L18.359 108.792L18.3951 109.539L18.4332 110.285L18.4732 111.029L18.5153 111.771L18.5594 112.511L18.6057 113.249L18.6541 113.985L18.7046 114.719L18.7574 115.451L18.8124 116.181L18.8698 116.909L18.9295 117.635L18.9915 118.358L19.056 119.079L19.1229 119.798L19.1923 120.514L19.2642 121.229L19.3387 121.94L19.4158 122.65L19.4955 123.357L19.5779 124.061L19.663 124.763L19.7508 125.462L19.8414 126.159L19.9348 126.853L20.0311 127.545L20.1302 128.233L20.2323 128.919L20.3373 129.603L20.4452 130.283L20.5562 130.961L20.6702 131.636L20.7873 132.308L20.9075 132.977L21.0309 133.643L21.1574 134.307L21.2871 134.967L21.42 135.624L21.5562 136.278L21.6957 136.93L21.8385 137.578L21.9846 138.223L22.1341 138.864L22.2871 139.503L22.4434 140.138L22.6032 140.771L22.7665 141.4L22.9333 142.025L23.1036 142.648L23.2774 143.267L23.4549 143.883L23.636 144.495L23.8207 145.104L24.009 145.71L24.2011 146.312L24.3968 146.91L24.5963 147.506L24.7995 148.097L25.0065 148.686L25.2172 149.27L25.4318 149.851L25.6502 150.429" fill="black"/>
</g>
<defs>
<clipPath id="clip0_41_40">
<rect width="40" height="150" fill="white"/>
</clipPath>
</defs>
</svg>
