<svg width="290" height="76" viewBox="0 0 290 76" fill="none" xmlns="http://www.w3.org/2000/svg">
<g clip-path="url(#clip0_1_2)">
<path d="M19.9632 61.64C16.4006 61.64 13.1899 61.0853 10.3312 59.976C7.49391 58.8453 5.27524 57.1067 3.67524 54.76C2.07524 52.4133 1.33924 49.416 1.46724 45.768H11.3872C11.4299 47.304 11.7499 48.616 12.3472 49.704C12.9446 50.792 13.8832 51.624 15.1632 52.2C16.4432 52.7547 18.1072 53.032 20.1552 53.032C21.8192 53.032 23.1846 52.8613 24.2512 52.52C25.3179 52.1787 26.0966 51.6773 26.5872 51.016C27.0992 50.3333 27.3552 49.5013 27.3552 48.52C27.3552 47.432 27.0139 46.536 26.3312 45.832C25.6486 45.1067 24.5712 44.4347 23.0992 43.816C21.6486 43.1973 19.7712 42.4933 17.4672 41.704C14.6086 40.68 12.1019 39.528 9.94724 38.248C7.81391 36.968 6.16058 35.4 4.98724 33.544C3.81391 31.688 3.22724 29.4053 3.22724 26.696C3.22724 22.472 4.68858 19.2613 7.61124 17.064C10.5552 14.8453 14.5446 13.736 19.5792 13.736C23.0139 13.736 25.8832 14.28 28.1872 15.368C30.4912 16.4347 32.2512 18.0347 33.4672 20.168C34.7046 22.3013 35.4299 24.9467 35.6432 28.104H25.9152C25.8726 26.8667 25.6059 25.8213 25.1152 24.968C24.6459 24.1147 23.9526 23.464 23.0352 23.016C22.1179 22.568 20.9766 22.344 19.6112 22.344C17.5419 22.344 15.9632 22.6853 14.8752 23.368C13.7872 24.0293 13.2432 25.0853 13.2432 26.536C13.2432 27.624 13.4886 28.552 13.9792 29.32C14.4912 30.0667 15.3659 30.7707 16.6032 31.432C17.8406 32.0933 19.5579 32.8293 21.7552 33.64C23.8032 34.3867 25.7659 35.1227 27.6432 35.848C29.5419 36.552 31.2379 37.3947 32.7312 38.376C34.2246 39.336 35.3979 40.552 36.2512 42.024C37.1259 43.496 37.5632 45.3733 37.5632 47.656C37.5846 52.3067 35.9952 55.8053 32.7952 58.152C29.5952 60.4773 25.3179 61.64 19.9632 61.64ZM52.6912 61.416C49.8112 61.416 47.5606 60.6907 45.9392 59.24C44.3392 57.768 43.5392 55.496 43.5392 52.424L43.4432 36.808C43.4432 35.9973 43.6672 35.336 44.1152 34.824C44.5846 34.312 45.2352 33.9813 46.0672 33.832L43.4432 27.464V26.408L45.2672 16.072H53.3632V49.352C53.3632 50.8453 53.5446 51.88 53.9072 52.456C54.2912 53.032 55.0166 53.32 56.0832 53.32C57.1499 53.32 58.0352 53.2987 58.7392 53.256C59.4646 53.2133 60.1472 53.1387 60.7872 53.032V60.872C60.0192 61.1493 58.8672 61.3093 57.3312 61.352C55.8166 61.3947 54.2699 61.416 52.6912 61.416ZM39.7312 33.832V26.056H60.5632V33.832H39.7312ZM64.9367 61V26.056H74.8567V61H64.9367ZM69.9287 22.088C68.2647 22.088 66.8461 21.512 65.6727 20.36C64.4994 19.1867 63.9127 17.6933 63.9127 15.88C63.9127 14.0667 64.4994 12.5947 65.6727 11.464C66.8461 10.312 68.2647 9.736 69.9287 9.736C71.5714 9.736 72.9794 10.312 74.1527 11.464C75.3261 12.5947 75.9127 14.0667 75.9127 15.88C75.9127 17.6933 75.3261 19.1867 74.1527 20.36C72.9794 21.512 71.5714 22.088 69.9287 22.088ZM81.7527 61V26.056H90.6487L91.4807 39.752L90.9047 37.672C91.0967 35.8373 91.4487 34.1733 91.9607 32.68C92.4727 31.1653 93.1341 29.864 93.9447 28.776C94.7554 27.688 95.7261 26.8453 96.8567 26.248C98.0087 25.6507 99.3207 25.352 100.793 25.352C101.219 25.352 101.646 25.3733 102.073 25.416C102.521 25.4587 102.915 25.5333 103.257 25.64V35.976C102.531 35.784 101.827 35.656 101.145 35.592C100.483 35.5067 99.8221 35.464 99.1607 35.464C97.9874 35.464 96.9207 35.5707 95.9607 35.784C95.0221 35.9973 94.2007 36.328 93.4967 36.776C92.7927 37.2027 92.2061 37.7573 91.7367 38.44V61H81.7527ZM114.785 61L114.753 51.72H119.969C123.233 51.72 125.9 51.24 127.969 50.28C130.039 49.32 131.564 47.784 132.545 45.672C133.548 43.56 134.049 40.776 134.049 37.32C134.049 33.9067 133.569 31.208 132.609 29.224C131.649 27.2187 130.135 25.7893 128.065 24.936C125.996 24.0827 123.287 23.656 119.937 23.656H114.529V14.472H121.505C126.433 14.472 130.604 15.336 134.017 17.064C137.452 18.792 140.065 21.3413 141.857 24.712C143.649 28.0827 144.545 32.2427 144.545 37.192C144.545 42.184 143.617 46.4613 141.761 50.024C139.905 53.5653 137.271 56.2853 133.857 58.184C130.465 60.0613 126.444 61 121.793 61H114.785ZM106.977 61V14.472H117.153V61H106.977ZM149.284 61V26.056H159.204V61H149.284ZM154.276 22.088C152.612 22.088 151.194 21.512 150.02 20.36C148.847 19.1867 148.26 17.6933 148.26 15.88C148.26 14.0667 148.847 12.5947 150.02 11.464C151.194 10.312 152.612 9.736 154.276 9.736C155.919 9.736 157.327 10.312 158.5 11.464C159.674 12.5947 160.26 14.0667 160.26 15.88C160.26 17.6933 159.674 19.1867 158.5 20.36C157.327 21.512 155.919 22.088 154.276 22.088ZM180.948 75.368C177.492 75.4107 174.548 74.888 172.116 73.8C169.684 72.7333 167.871 71.2187 166.676 69.256C165.503 67.2933 165.066 65.0427 165.364 62.504H175.028C175.007 63.464 175.167 64.3173 175.508 65.064C175.85 65.832 176.468 66.44 177.364 66.888C178.26 67.336 179.519 67.56 181.14 67.56C182.634 67.56 183.786 67.336 184.596 66.888C185.428 66.4613 186.015 65.8107 186.356 64.936C186.698 64.0613 186.868 62.9733 186.868 61.672V51.848C186.57 53.704 186.015 55.2293 185.204 56.424C184.415 57.6187 183.38 58.5147 182.1 59.112C180.82 59.688 179.295 59.976 177.524 59.976C175.412 59.976 173.535 59.5387 171.892 58.664C170.271 57.7893 168.884 56.584 167.732 55.048C166.602 53.4907 165.738 51.6987 165.14 49.672C164.564 47.624 164.276 45.4373 164.276 43.112C164.276 39.336 164.852 36.136 166.004 33.512C167.178 30.8667 168.778 28.8613 170.804 27.496C172.852 26.1093 175.188 25.416 177.812 25.416C179.498 25.416 180.948 25.6613 182.164 26.152C183.402 26.6427 184.426 27.304 185.236 28.136C186.047 28.9467 186.634 29.8533 186.996 30.856L187.348 26.088H196.756V60.744C196.756 63.8587 196.159 66.4933 194.964 68.648C193.77 70.8027 191.999 72.4453 189.652 73.576C187.327 74.7067 184.426 75.304 180.948 75.368ZM180.82 51.848C181.908 51.848 182.858 51.7307 183.668 51.496C184.5 51.24 185.183 50.9093 185.716 50.504C186.25 50.0773 186.634 49.6293 186.868 49.16V37.064C186.655 36.4027 186.292 35.816 185.78 35.304C185.268 34.792 184.607 34.3867 183.796 34.088C183.007 33.768 182.09 33.608 181.044 33.608C178.911 33.608 177.247 34.3867 176.052 35.944C174.858 37.5013 174.26 39.88 174.26 43.08C174.26 45.8533 174.804 48.008 175.892 49.544C176.98 51.08 178.623 51.848 180.82 51.848ZM203.599 61V26.056H213.519V61H203.599ZM208.591 22.088C206.927 22.088 205.509 21.512 204.335 20.36C203.162 19.1867 202.575 17.6933 202.575 15.88C202.575 14.0667 203.162 12.5947 204.335 11.464C205.509 10.312 206.927 9.736 208.591 9.736C210.234 9.736 211.642 10.312 212.815 11.464C213.989 12.5947 214.575 14.0667 214.575 15.88C214.575 17.6933 213.989 19.1867 212.815 20.36C211.642 21.512 210.234 22.088 208.591 22.088ZM230.669 61.416C227.789 61.416 225.538 60.6907 223.917 59.24C222.317 57.768 221.517 55.496 221.517 52.424L221.421 36.808C221.421 35.9973 221.645 35.336 222.093 34.824C222.562 34.312 223.213 33.9813 224.045 33.832L221.421 27.464V26.408L223.245 16.072H231.341V49.352C231.341 50.8453 231.522 51.88 231.885 52.456C232.269 53.032 232.994 53.32 234.061 53.32C235.127 53.32 236.013 53.2987 236.717 53.256C237.442 53.2133 238.125 53.1387 238.765 53.032V60.872C237.997 61.1493 236.845 61.3093 235.309 61.352C233.794 61.3947 232.247 61.416 230.669 61.416ZM217.709 33.832V26.056H238.541V33.832H217.709ZM252.464 61.384C250.48 61.384 248.678 61.0107 247.056 60.264C245.456 59.5173 244.187 58.4187 243.248 56.968C242.31 55.5173 241.84 53.736 241.84 51.624C241.84 49.512 242.267 47.7733 243.12 46.408C243.995 45.0427 245.179 43.976 246.672 43.208C248.166 42.4187 249.851 41.832 251.728 41.448C252.987 41.192 254.278 40.9787 255.6 40.808C256.944 40.6373 258.203 40.4987 259.376 40.392C260.571 40.2853 261.584 40.2 262.416 40.136V39.176C262.416 36.9573 262.043 35.4 261.296 34.504C260.571 33.608 259.291 33.16 257.456 33.16C256.283 33.16 255.291 33.32 254.48 33.64C253.691 33.96 253.094 34.536 252.688 35.368C252.304 36.2 252.123 37.384 252.144 38.92H242.736C242.48 35.848 242.96 33.32 244.176 31.336C245.392 29.3307 247.174 27.848 249.52 26.888C251.867 25.9067 254.619 25.416 257.776 25.416C259.611 25.416 261.392 25.6187 263.12 26.024C264.848 26.408 266.395 27.08 267.76 28.04C269.126 28.9787 270.203 30.2693 270.992 31.912C271.803 33.5547 272.208 35.6347 272.208 38.152V61H262.352L262.416 52.84C262.032 55.1867 261.072 57.2027 259.536 58.888C258.022 60.552 255.664 61.384 252.464 61.384ZM255.76 54.792C256.806 54.792 257.798 54.6 258.736 54.216C259.696 53.8107 260.507 53.2667 261.168 52.584C261.83 51.88 262.246 51.1013 262.416 50.248V44.744C261.563 44.872 260.699 45.0107 259.824 45.16C258.95 45.3093 258.182 45.4693 257.52 45.64C255.387 46.1093 253.926 46.76 253.136 47.592C252.347 48.4027 251.952 49.4693 251.952 50.792C251.952 51.624 252.091 52.3387 252.368 52.936C252.667 53.5333 253.104 53.992 253.68 54.312C254.256 54.632 254.95 54.792 255.76 54.792ZM278.764 61V11.016H288.748V61H278.764Z" fill="white"/>
<g clip-path="url(#clip1_1_2)">
<path d="M69.6302 0.787111C69.3876 0.868889 69.4569 1.26756 69.7689 1.63556C70.4738 2.47378 70.4276 3.34267 69.6187 4.37511C68.96 5.22356 68.7982 5.612 68.7867 6.348C68.7867 7.084 69.0178 7.66667 69.6071 8.35156C69.9307 8.74 70.1387 8.89333 70.3467 8.89333C70.8204 8.89333 70.832 8.53556 70.3698 7.94267C69.7342 7.09422 69.688 6.98178 69.7342 6.24578C69.7689 5.64267 69.8267 5.48933 70.2196 5.00889C70.9129 4.16044 71.0978 3.72089 71.0978 2.91333C71.0978 1.67644 70.312 0.541778 69.6302 0.787111Z" fill="white"/>
<path d="M64.9964 3.39378C64.8 3.56755 64.8231 3.76178 65.112 4.10933C65.4933 4.6 65.4471 5.152 64.9387 5.82667C64.2453 6.75689 64.2569 7.59511 64.9733 8.47422C65.2622 8.82178 65.3893 8.90356 65.6435 8.87289C66.0827 8.832 66.0942 8.56622 65.6782 7.98356C65.1929 7.32933 65.216 6.95111 65.7475 6.19467C66.4178 5.23378 66.4062 4.18089 65.7244 3.53689C65.424 3.25067 65.2044 3.20978 64.9964 3.39378Z" fill="white"/>
<path d="M74.2409 3.39378C74.0445 3.56755 74.0676 3.79244 74.3333 4.14C74.6916 4.62044 74.6338 5.13155 74.1369 5.85733C73.744 6.40933 73.6978 6.55244 73.6978 7.15555C73.6978 7.76889 73.744 7.90178 74.1022 8.372C74.4258 8.79111 74.5645 8.89333 74.784 8.87289C75.2925 8.82178 75.3387 8.556 74.9342 8.01422C74.4258 7.34978 74.4373 6.91022 74.9805 6.12311C75.6391 5.18267 75.6276 4.29333 74.9458 3.57778C74.6338 3.25067 74.4605 3.19955 74.2409 3.39378Z" fill="white"/>
<path d="M81.96 5.19289C81.8676 5.22355 79.7644 6.64444 77.2916 8.35155L72.7964 11.4489H64.9618H57.1156V11.6942C57.1156 12.1644 57.4622 13.6569 57.728 14.3622C58.8604 17.296 61.4258 19.8311 64.5573 21.1191L65.4356 21.4769V22.2333V23H70H74.5644V22.2333V21.4564L75.3271 21.16C77.1067 20.4547 79.1289 19.0133 80.3538 17.5924C81.5556 16.192 82.6187 13.8307 82.8267 12.1236L82.9076 11.4489L80.0418 11.4284L77.1644 11.3978L79.7991 10.4369C81.2551 9.90533 82.5609 9.384 82.7227 9.28178C83.0809 9.02622 83.0924 8.59689 82.7342 8.30044C82.584 8.17778 82.3876 8.07555 82.2836 8.07555C82.1796 8.07555 80.4462 8.79111 78.4124 9.67022C76.3902 10.5391 74.7956 11.2138 74.8533 11.1627C74.9227 11.1013 76.7138 10.0178 78.84 8.74C80.9662 7.46222 82.7804 6.348 82.8613 6.256C83.2773 5.77555 82.6071 4.968 81.96 5.19289Z" fill="white"/>
</g>
</g>
<defs>
<clipPath id="clip0_1_2">
<rect width="290" height="76" fill="currentColor"/>
</clipPath>
<clipPath id="clip1_1_2">
<rect width="26" height="23" fill="currentColor" transform="translate(57)"/>
</clipPath>
</defs>
</svg>
