<svg width="90" height="66" viewBox="0 0 90 66" fill="none" xmlns="http://www.w3.org/2000/svg">
<path fill-rule="evenodd" clip-rule="evenodd" d="M69.4315 23.5022V23.5022L69.4441 23.553L69.4817 23.6046L69.544 23.6576L69.631 23.7127L69.7431 23.7707L69.8808 23.8323L70.045 23.8982L70.2368 23.9694L70.4574 24.0467L70.7083 24.1311L70.9912 24.2237L71.3077 24.3256L71.6599 24.438L72.0495 24.5622L72.4785 24.6996L72.9487 24.8517L73.4618 25.02L74.019 25.2059L74.6213 25.4111L75.2688 25.6369L75.9609 25.8847L76.6959 26.1554L77.4711 26.4499L78.2819 26.7685L79.1223 27.1109L79.9842 27.4762L80.8579 27.8626L81.7312 28.2674L82.5903 28.687L83.4197 29.1166L84.2024 29.5504L84.9209 29.9819L85.5576 30.4034L86.0955 30.8072L86.5196 31.1851L86.817 31.5291L86.9782 31.832L86.9978 32.0873L86.8743 32.2901L86.6108 32.4369L86.2143 32.526L85.6958 32.5575L85.0692 32.5332L84.3508 32.4565L83.5579 32.332L82.7088 32.1653L81.821 31.9626L80.9114 31.7306L79.9952 31.4758L79.0858 31.2044L78.1945 30.9225L77.3306 30.6353L76.5013 30.3475L75.7119 30.0631L74.966 29.7853L74.2659 29.5169L73.6124 29.2599L73.0055 29.0158L72.4443 28.7856L71.9275 28.5702L71.4531 28.3698L71.0191 28.1846L70.6232 28.0145L70.2631 27.8594L69.9364 27.7189L69.6408 27.5927L69.3742 27.4803L69.1344 27.3815L68.9196 27.2957L68.7279 27.2228L68.5577 27.1622L68.4076 27.1138L68.2762 27.0774L68.1624 27.0529L68.0651 27.0401L67.9834 27.0391L67.9166 27.0501L67.8639 27.0731L67.825 27.1085L67.7993 27.1566L67.7866 27.218L67.7866 27.2933L67.7993 27.383L67.8246 27.4882L67.8625 27.6096L67.9132 27.7485L67.9769 27.906L68.054 28.0835L68.1446 28.2826L68.2492 28.5048L68.3682 28.7519L68.5021 29.026L68.6512 29.329L68.8159 29.663L68.9965 30.0303L69.1934 30.433L69.4065 30.8733L69.6357 31.3532L69.8807 31.8744L70.1407 32.4382L70.4146 33.0456L70.7009 33.6966L70.9973 34.3904L71.3012 35.1251L71.6089 35.8975L71.9164 36.7026L72.2187 37.534L72.5101 38.3831L72.7844 39.2394L73.0348 40.0906L73.2544 40.9226L73.436 41.7198L73.5731 42.4656L73.6594 43.1433L73.69 43.7364L73.6612 44.2296L73.5708 44.6097L73.4186 44.8662L73.2063 44.9922L72.9374 44.9846L72.6172 44.8443L72.2524 44.5762L71.8507 44.1888L71.4206 43.694L70.9708 43.1056L70.5098 42.4395L70.0456 41.7121L69.5854 40.9398L69.1354 40.1384L68.7009 39.3226L68.2858 38.5056L67.8932 37.6987L67.5249 36.9113L67.182 36.151L66.8649 35.4236L66.5732 34.7334L66.3062 34.0832L66.0628 33.4747L65.8416 32.9084L65.6411 32.3842L65.4596 31.9014L65.2956 31.4587L65.1474 31.0547L65.0134 30.6876L64.8922 30.3558L64.7824 30.0573L64.6826 29.7905L64.5916 29.5536L64.5083 29.3452L64.4317 29.1639L64.3607 29.0083L64.2945 28.8777L64.2322 28.771L64.173 28.6878L64.1162 28.6278L64.0609 28.5908L64.0065 28.5771L63.9521 28.587L63.897 28.6203L63.8404 28.6767L63.7817 28.7562L63.7199 28.8591L63.6544 28.9859L63.5843 29.1374L63.5086 29.3146L63.4264 29.5186L63.3368 29.7508L63.2385 30.0127L63.1303 30.3061L63.011 30.6325L62.8792 30.9938L62.7333 31.3918L62.5719 31.8282L62.3933 32.3046L62.1959 32.8221L61.9781 33.3817L61.7384 33.9835L61.4752 34.6271L61.1876 35.3111L60.8745 36.0328L60.5357 36.7882L60.1714 37.5718L59.7825 38.3762L59.3709 39.1923L58.9392 40.0091L58.4914 40.8137L58.0325 41.5917L57.5684 42.3273L57.1064 43.0043L56.6542 43.6061L56.2204 44.1169L55.8136 44.5222L55.4424 44.8099L55.1146 44.9711L54.8371 45L54.6155 44.8952L54.4536 44.659L54.3534 44.298L54.3148 43.822L54.3361 43.2439L54.4139 42.5786L54.5433 41.8424L54.7183 41.0523L54.9322 40.2248L55.1782 39.3756L55.4492 38.5193L55.7383 37.6683L56.0392 36.8335L56.3462 36.0236L56.6543 35.2457L56.959 34.5047L57.2568 33.8042L57.5448 33.1464L57.8209 32.532L58.0832 31.9613L58.3306 31.4334L58.5624 30.9471L58.7781 30.5006L58.9775 30.092L59.1607 29.7192L59.3279 29.38L59.4795 29.0722L59.6157 28.7937L59.7371 28.5424L59.844 28.3163L59.9368 28.1137L60.016 27.9329L60.0818 27.7723L60.1346 27.6306L60.1745 27.5064L60.2018 27.3987L60.2165 27.3066L60.2185 27.2291L60.2079 27.1655L60.1843 27.1153L60.1475 27.0779L60.097 27.0529L60.0325 27.0401L59.9532 27.0392L59.8585 27.05L59.7473 27.0727L59.6188 27.1072L59.4718 27.1537L59.3049 27.2123L59.1167 27.2833L58.9057 27.367L58.67 27.4637L58.4078 27.5739L58.117 27.6979L57.7954 27.8361L57.4407 27.9888L57.0507 28.1565L56.6229 28.3393L56.1552 28.5373L55.6452 28.7503L55.0912 28.9782L54.4917 29.2201L53.8456 29.4752L53.1529 29.7419L52.4142 30.0183L51.6315 30.3019L50.8083 30.5894L49.9494 30.877L49.0619 31.1601L48.1547 31.4335L47.2387 31.6914L46.3271 31.9275L45.4347 32.1352L44.5783 32.3081L43.7753 32.4397L43.0438 32.5244L42.4014 32.5573L41.8647 32.5348L41.448 32.455L41.1627 32.3173L41.0166 32.1232L41.0134 31.876L41.1523 31.5803L41.4286 31.2423L41.8332 30.8693L42.354 30.4691L42.9761 30.0499L43.6827 29.6195L44.4564 29.1855L45.2795 28.7549L46.1349 28.3334L47.007 27.9259L47.8814 27.5364L48.746 27.1676L49.5904 26.8215L50.4063 26.4991L51.1875 26.2007L51.9292 25.9262L52.6283 25.6749L53.2829 25.4457L53.8923 25.2373L54.4567 25.0484L54.9768 24.8774L55.4537 24.7228L55.8892 24.5831L56.2849 24.4569L56.6429 24.3427L56.965 24.2393L57.2531 24.1453L57.509 24.0596L57.7343 23.9813L57.9306 23.9092L58.0991 23.8425L58.241 23.7802L58.3571 23.7218L58.4481 23.6662L58.5143 23.613L58.5559 23.5612L58.5725 23.5103L58.5639 23.4594L58.5302 23.408L58.4719 23.3553L58.3888 23.3006L58.2808 23.2431L58.1472 23.1822L57.9872 23.117L57.7999 23.0467L57.584 22.9704L57.338 22.8872L57.0604 22.796L56.7493 22.6957L56.403 22.585L56.0195 22.4628L55.5968 22.3276L55.1333 22.1779L54.6271 22.0123L54.077 21.8293L53.4819 21.6273L52.8417 21.4048L52.1566 21.1606L51.4282 20.8936L50.6592 20.6029L49.8537 20.2882L49.0175 19.9495L48.1584 19.5878L47.2859 19.2046L46.4116 18.8025L45.5492 18.385L44.714 17.9566L43.9227 17.523L43.1928 17.0908L42.5419 16.6671L41.9872 16.2599L41.5441 15.8774L41.2258 15.5275L41.0423 15.2176L41 14.9543L41.1008 14.7429L41.3424 14.587L41.7184 14.4887L42.2183 14.4481L42.8287 14.4637L43.5336 14.5323L44.3158 14.6496L45.1572 14.8099L46.04 15.0073L46.9472 15.2351L47.8633 15.4867L48.7746 15.7558L49.6695 16.0365L50.5383 16.3231L51.3735 16.6111L52.1695 16.8963L52.9225 17.1753L53.63 17.4454L54.291 17.7044L54.9052 17.9506L55.4736 18.183L55.9974 18.4008L56.4784 18.6036L56.9187 18.7913L57.3205 18.9637L57.6861 19.1212L58.018 19.264L58.3184 19.3925L58.5895 19.507L58.8334 19.608L59.0521 19.6958L59.2473 19.7708L59.4208 19.8333L59.574 19.8836L59.7083 19.9219L59.8249 19.9484L59.9248 19.963L60.0089 19.9659L60.078 19.9568L60.1329 19.9358L60.174 19.9023L60.2018 19.8562L60.2165 19.797L60.2185 19.724L60.2079 19.6366L60.1846 19.534L60.1487 19.4152L60.1 19.2792L60.0384 19.1247L59.9635 18.9505L59.8751 18.755L59.7727 18.5366L59.656 18.2935L59.5245 18.0239L59.3779 17.7257L59.2157 17.3967L59.0376 17.0349L58.8433 16.6379L58.6328 16.2037L58.4062 15.7303L58.1637 15.2158L57.906 14.6588L57.6342 14.0584L57.3497 13.4144L57.0547 12.7273L56.7519 11.9989L56.4445 11.2322L56.1366 10.4319L55.8332 9.6042L55.5396 8.7573L55.2622 7.90135L55.0075 7.04842L54.7825 6.21237L54.5944 5.40856L54.4498 4.65338L54.355 3.96369L54.3152 3.35607L54.3344 2.84602L54.415 2.44716L54.5574 2.17038L54.7603 2.02327L55.0204 2.00957L55.3329 2.129L55.6911 2.37726L56.0875 2.74631L56.5136 3.22493L56.9609 3.79939L57.4207 4.4542L57.8849 5.173L58.3462 5.93925L58.7981 6.73701L59.2354 7.55138L59.6538 8.36899L60.0502 9.17823L60.4224 9.96932L60.7694 10.7344L61.0906 11.4673L61.3863 12.1636L61.6571 12.8203L61.9042 13.4356L62.1289 14.0086L62.3326 14.5395L62.517 15.0288L62.6837 15.4778L62.8343 15.8878L62.9704 16.2607L63.0936 16.598L63.2051 16.9017L63.3065 17.1734L63.3987 17.4149L63.4832 17.6278L63.5608 17.8134L63.6326 17.9729L63.6995 18.1075L63.7624 18.2179L63.822 18.3048L63.8792 18.3686L63.9346 18.4092L63.9892 18.4266L64.0435 18.4205L64.0985 18.3909L64.1547 18.3382L64.2131 18.2624L64.2743 18.1632L64.3392 18.0403L64.4085 17.8928L64.4832 17.7198L64.5643 17.5201L64.6527 17.2925L64.7495 17.0354L64.856 16.7472L64.9735 16.4262L65.1032 16.0705L65.2467 15.6785L65.4055 15.2483L65.5813 14.7784L65.7756 14.2675L65.99 13.7146L66.2262 13.1195L66.4855 12.4825L66.7692 11.8048L67.0782 11.0889L67.4129 10.3385L67.7732 9.559L68.1582 8.75733L68.5664 7.94239L68.9951 7.1249L69.4407 6.31743L69.8982 5.53419L70.3619 4.79068L70.8248 4.10323L71.2791 3.48837L71.7164 2.96212L72.1281 2.53914L72.5055 2.23196L72.8407 2.0502L73.1266 2L73.3574 2.08359L73.529 2.29913L73.6391 2.64083L73.6874 3.09931L73.6754 3.66214L73.6063 4.31464L73.4848 5.04063L73.3167 5.8233L73.1085 6.64594L72.8671 7.49263L72.5996 8.34876L72.313 9.20137L72.0135 10.0394L71.7071 10.8537L71.399 11.6371L71.0935 12.3843L70.7943 13.0914L70.5046 13.7561L70.2265 14.3774L69.9619 14.955L69.712 15.4897L69.4778 15.9825L69.2595 16.4352L69.0575 16.8497L68.8717 17.2281L68.7019 17.5725L68.5479 17.8851L68.4092 18.1682L68.2855 18.4237L68.1764 18.6536L68.0813 18.8598L68 19.044L67.9321 19.2078L67.8772 19.3524L67.8353 19.4793L67.806 19.5895L67.7893 19.6841L67.7852 19.7639L67.7939 19.8296L67.8154 19.8819L67.8501 19.9213L67.8983 19.9483L67.9605 19.963L68.0374 19.9658L68.1297 19.9568L68.2381 19.936L68.3638 19.9034L68.5078 19.8589L68.6714 19.8022L68.8561 19.7332L69.0634 19.6516L69.295 19.5569L69.5528 19.4489L69.839 19.3272L70.1555 19.1913L70.5048 19.0408L70.889 18.8756L71.3106 18.6952L71.7718 18.4996L72.2749 18.289L72.8218 18.0634L73.414 17.8237L74.0526 17.5706L74.738 17.3056L75.4694 17.0306L76.2453 16.748L77.0624 16.4609L77.916 16.173L78.7994 15.8888L79.7042 15.6135L80.6196 15.3527L81.5329 15.1127L82.4294 14.9L83.2927 14.7212L84.1054 14.5826L84.8495 14.4901L85.5072 14.4487L86.0618 14.4621L86.4984 14.5328L86.8053 14.6613L86.9739 14.8466L87 15.0856L86.8835 15.374L86.6286 15.7057L86.2436 16.0736L85.7404 16.47L85.1334 16.8868L84.4391 17.3159L83.6749 17.7497L82.8585 18.1814L82.0071 18.6047L81.1367 19.0147L80.2618 19.4073L79.3949 19.7795L78.5467 20.1293L77.7257 20.4555L76.9387 20.7577L76.1904 21.036L75.4844 21.2909L74.8226 21.5236L74.206 21.7352L73.6345 21.9271L73.1074 22.1009L72.6237 22.258L72.1818 22.3999L71.7798 22.5282L71.4159 22.6442L71.0883 22.7493L70.7949 22.8447L70.534 22.9316L70.3039 23.0111L70.1031 23.0841L69.9302 23.1516L69.7841 23.2145L69.6639 23.2735L69.569 23.3294L69.4988 23.383L69.4534 23.435L69.4327 23.486L69.4315 23.5022Z" fill="#A58412"/>
<path d="M69.4315 23.5022V23.5022ZM69.4315 23.5022L69.4441 23.553L69.4817 23.6046L69.544 23.6576L69.631 23.7127L69.7431 23.7707L69.8808 23.8323L70.045 23.8982L70.2368 23.9694L70.4574 24.0467L70.7083 24.1311L70.9912 24.2237L71.3077 24.3256L71.6599 24.438L72.0495 24.5622L72.4785 24.6996L72.9487 24.8517L73.4618 25.02L74.019 25.2059L74.6213 25.4111L75.2688 25.6369L75.9609 25.8847L76.6959 26.1554L77.4711 26.4499L78.2819 26.7685L79.1223 27.1109L79.9842 27.4762L80.8579 27.8626L81.7312 28.2674L82.5903 28.687L83.4197 29.1166L84.2024 29.5504L84.9209 29.9819L85.5576 30.4034L86.0955 30.8072L86.5196 31.1851L86.817 31.5291L86.9782 31.832L86.9978 32.0873L86.8743 32.2901L86.6108 32.4369L86.2143 32.526L85.6958 32.5575L85.0692 32.5332L84.3508 32.4565L83.5579 32.332L82.7088 32.1653L81.821 31.9626L80.9114 31.7306L79.9952 31.4758L79.0858 31.2044L78.1945 30.9225L77.3306 30.6353L76.5013 30.3475L75.7119 30.0631L74.966 29.7853L74.2659 29.5169L73.6124 29.2599L73.0055 29.0158L72.4443 28.7856L71.9275 28.5702L71.4531 28.3698L71.0191 28.1846L70.6232 28.0145L70.2631 27.8594L69.9364 27.7189L69.6408 27.5927L69.3742 27.4803L69.1344 27.3815L68.9196 27.2957L68.7279 27.2228L68.5577 27.1622L68.4076 27.1138L68.2762 27.0774L68.1624 27.0529L68.0651 27.0401L67.9834 27.0391L67.9166 27.0501L67.8639 27.0731L67.825 27.1085L67.7993 27.1566L67.7866 27.218L67.7866 27.2933L67.7993 27.383L67.8246 27.4882L67.8625 27.6096L67.9132 27.7485L67.9769 27.906L68.054 28.0835L68.1446 28.2826L68.2492 28.5048L68.3682 28.7519L68.5021 29.026L68.6512 29.329L68.8159 29.663L68.9965 30.0303L69.1934 30.433L69.4065 30.8733L69.6357 31.3532L69.8807 31.8744L70.1407 32.4382L70.4146 33.0456L70.7009 33.6966L70.9973 34.3904L71.3012 35.1251L71.6089 35.8975L71.9164 36.7026L72.2187 37.534L72.5101 38.3831L72.7844 39.2394L73.0348 40.0906L73.2544 40.9226L73.436 41.7198L73.5731 42.4656L73.6594 43.1433L73.69 43.7364L73.6612 44.2296L73.5708 44.6097L73.4186 44.8662L73.2063 44.9922L72.9374 44.9846L72.6172 44.8443L72.2524 44.5762L71.8507 44.1888L71.4206 43.694L70.9708 43.1056L70.5098 42.4395L70.0456 41.7121L69.5854 40.9398L69.1354 40.1384L68.7009 39.3226L68.2858 38.5056L67.8932 37.6987L67.5249 36.9113L67.182 36.151L66.8649 35.4236L66.5732 34.7334L66.3062 34.0832L66.0628 33.4747L65.8416 32.9084L65.6411 32.3842L65.4596 31.9014L65.2956 31.4587L65.1474 31.0547L65.0134 30.6876L64.8922 30.3558L64.7824 30.0573L64.6826 29.7905L64.5916 29.5536L64.5083 29.3452L64.4317 29.1639L64.3607 29.0083L64.2945 28.8777L64.2322 28.771L64.173 28.6878L64.1162 28.6278L64.0609 28.5908L64.0065 28.5771L63.9521 28.587L63.897 28.6203L63.8404 28.6767L63.7817 28.7562L63.7199 28.8591L63.6544 28.9859L63.5843 29.1374L63.5086 29.3146L63.4264 29.5186L63.3368 29.7508L63.2385 30.0127L63.1303 30.3061L63.011 30.6325L62.8792 30.9938L62.7333 31.3918L62.5719 31.8282L62.3933 32.3046L62.1959 32.8221L61.9781 33.3817L61.7384 33.9835L61.4752 34.6271L61.1876 35.3111L60.8745 36.0328L60.5357 36.7882L60.1714 37.5718L59.7825 38.3762L59.3709 39.1923L58.9392 40.0091L58.4914 40.8137L58.0325 41.5917L57.5684 42.3273L57.1064 43.0043L56.6542 43.6061L56.2204 44.1169L55.8136 44.5222L55.4424 44.8099L55.1146 44.9711L54.8371 45L54.6155 44.8952L54.4536 44.659L54.3534 44.298L54.3148 43.822L54.3361 43.2439L54.4139 42.5786L54.5433 41.8424L54.7183 41.0523L54.9322 40.2248L55.1782 39.3756L55.4492 38.5193L55.7383 37.6683L56.0392 36.8335L56.3462 36.0236L56.6543 35.2457L56.959 34.5047L57.2568 33.8042L57.5448 33.1464L57.8209 32.532L58.0832 31.9613L58.3306 31.4334L58.5624 30.9471L58.7781 30.5006L58.9775 30.092L59.1607 29.7192L59.3279 29.38L59.4795 29.0722L59.6157 28.7937L59.7371 28.5424L59.844 28.3163L59.9368 28.1137L60.016 27.9329L60.0818 27.7723L60.1346 27.6306L60.1745 27.5064L60.2018 27.3987L60.2165 27.3066L60.2185 27.2291L60.2079 27.1655L60.1843 27.1153L60.1475 27.0779L60.097 27.0529L60.0325 27.0401L59.9532 27.0392L59.8585 27.05L59.7473 27.0727L59.6188 27.1072L59.4718 27.1537L59.3049 27.2123L59.1167 27.2833L58.9057 27.367L58.67 27.4637L58.4078 27.5739L58.117 27.6979L57.7954 27.8361L57.4407 27.9888L57.0507 28.1565L56.6229 28.3393L56.1552 28.5373L55.6452 28.7503L55.0912 28.9782L54.4917 29.2201L53.8456 29.4752L53.1529 29.7419L52.4142 30.0183L51.6315 30.3019L50.8083 30.5894L49.9494 30.877L49.0619 31.1601L48.1547 31.4335L47.2387 31.6914L46.3271 31.9275L45.4347 32.1352L44.5783 32.3081L43.7753 32.4397L43.0438 32.5244L42.4014 32.5573L41.8647 32.5348L41.448 32.455L41.1627 32.3173L41.0166 32.1232L41.0134 31.876L41.1523 31.5803L41.4286 31.2423L41.8332 30.8693L42.354 30.4691L42.9761 30.0499L43.6827 29.6195L44.4564 29.1855L45.2795 28.7549L46.1349 28.3334L47.007 27.9259L47.8814 27.5364L48.746 27.1676L49.5904 26.8215L50.4063 26.4991L51.1875 26.2007L51.9292 25.9262L52.6283 25.6749L53.2829 25.4457L53.8923 25.2373L54.4567 25.0484L54.9768 24.8774L55.4537 24.7228L55.8892 24.5831L56.2849 24.4569L56.6429 24.3427L56.965 24.2393L57.2531 24.1453L57.509 24.0596L57.7343 23.9813L57.9306 23.9092L58.0991 23.8425L58.241 23.7802L58.3571 23.7218L58.4481 23.6662L58.5143 23.613L58.5559 23.5612L58.5725 23.5103L58.5639 23.4594L58.5302 23.408L58.4719 23.3553L58.3888 23.3006L58.2808 23.2431L58.1472 23.1822L57.9872 23.117L57.7999 23.0467L57.584 22.9704L57.338 22.8872L57.0604 22.796L56.7493 22.6957L56.403 22.585L56.0195 22.4628L55.5968 22.3276L55.1333 22.1779L54.6271 22.0123L54.077 21.8293L53.4819 21.6273L52.8417 21.4048L52.1566 21.1606L51.4282 20.8936L50.6592 20.6029L49.8537 20.2882L49.0175 19.9495L48.1584 19.5878L47.2859 19.2046L46.4116 18.8025L45.5492 18.385L44.714 17.9566L43.9227 17.523L43.1928 17.0908L42.5419 16.6671L41.9872 16.2599L41.5441 15.8774L41.2258 15.5275L41.0423 15.2176L41 14.9543L41.1008 14.7429L41.3424 14.587L41.7184 14.4887L42.2183 14.4481L42.8287 14.4637L43.5336 14.5323L44.3158 14.6496L45.1572 14.8099L46.04 15.0073L46.9472 15.2351L47.8633 15.4867L48.7746 15.7558L49.6695 16.0365L50.5383 16.3231L51.3735 16.6111L52.1695 16.8963L52.9225 17.1753L53.63 17.4454L54.291 17.7044L54.9052 17.9506L55.4736 18.183L55.9974 18.4008L56.4784 18.6036L56.9187 18.7913L57.3205 18.9637L57.6861 19.1212L58.018 19.264L58.3184 19.3925L58.5895 19.507L58.8334 19.608L59.0521 19.6958L59.2473 19.7708L59.4208 19.8333L59.574 19.8836L59.7083 19.9219L59.8249 19.9484L59.9248 19.963L60.0089 19.9659L60.078 19.9568L60.1329 19.9358L60.174 19.9023L60.2018 19.8562L60.2165 19.797L60.2185 19.724L60.2079 19.6366L60.1846 19.534L60.1487 19.4152L60.1 19.2792L60.0384 19.1247L59.9635 18.9505L59.8751 18.755L59.7727 18.5366L59.656 18.2935L59.5245 18.0239L59.3779 17.7257L59.2157 17.3967L59.0376 17.0349L58.8433 16.6379L58.6328 16.2037L58.4062 15.7303L58.1637 15.2158L57.906 14.6588L57.6342 14.0584L57.3497 13.4144L57.0547 12.7273L56.7519 11.9989L56.4445 11.2322L56.1366 10.4319L55.8332 9.6042L55.5396 8.7573L55.2622 7.90135L55.0075 7.04842L54.7825 6.21237L54.5944 5.40856L54.4498 4.65338L54.355 3.96369L54.3152 3.35607L54.3344 2.84602L54.415 2.44716L54.5574 2.17038L54.7603 2.02327L55.0204 2.00957L55.3329 2.129L55.6911 2.37726L56.0875 2.74631L56.5136 3.22493L56.9609 3.79939L57.4207 4.4542L57.8849 5.173L58.3462 5.93925L58.7981 6.73701L59.2354 7.55138L59.6538 8.36899L60.0502 9.17823L60.4224 9.96932L60.7694 10.7344L61.0906 11.4673L61.3863 12.1636L61.6571 12.8203L61.9042 13.4356L62.1289 14.0086L62.3326 14.5395L62.517 15.0288L62.6837 15.4778L62.8343 15.8878L62.9704 16.2607L63.0936 16.598L63.2051 16.9017L63.3065 17.1734L63.3987 17.4149L63.4832 17.6278L63.5608 17.8134L63.6326 17.9729L63.6995 18.1075L63.7624 18.2179L63.822 18.3048L63.8792 18.3686L63.9346 18.4092L63.9892 18.4266L64.0435 18.4205L64.0985 18.3909L64.1547 18.3382L64.2131 18.2624L64.2743 18.1632L64.3392 18.0403L64.4085 17.8928L64.4832 17.7198L64.5643 17.5201L64.6527 17.2925L64.7495 17.0354L64.856 16.7472L64.9735 16.4262L65.1032 16.0705L65.2467 15.6785L65.4055 15.2483L65.5813 14.7784L65.7756 14.2675L65.99 13.7146L66.2262 13.1195L66.4855 12.4825L66.7692 11.8048L67.0782 11.0889L67.4129 10.3385L67.7732 9.559L68.1582 8.75733L68.5664 7.94239L68.9951 7.1249L69.4407 6.31743L69.8982 5.53419L70.3619 4.79068L70.8248 4.10323L71.2791 3.48837L71.7164 2.96212L72.1281 2.53914L72.5055 2.23196L72.8407 2.0502L73.1266 2L73.3574 2.08359L73.529 2.29913L73.6391 2.64083L73.6874 3.09931L73.6754 3.66214L73.6063 4.31464L73.4848 5.04063L73.3167 5.8233L73.1085 6.64594L72.8671 7.49263L72.5996 8.34876L72.313 9.20137L72.0135 10.0394L71.7071 10.8537L71.399 11.6371L71.0935 12.3843L70.7943 13.0914L70.5046 13.7561L70.2265 14.3774L69.9619 14.955L69.712 15.4897L69.4778 15.9825L69.2595 16.4352L69.0575 16.8497L68.8717 17.2281L68.7019 17.5725L68.5479 17.8851L68.4092 18.1682L68.2855 18.4237L68.1764 18.6536L68.0813 18.8598L68 19.044L67.9321 19.2078L67.8772 19.3524L67.8353 19.4793L67.806 19.5895L67.7893 19.6841L67.7852 19.7639L67.7939 19.8296L67.8154 19.8819L67.8501 19.9213L67.8983 19.9483L67.9605 19.963L68.0374 19.9658L68.1297 19.9568L68.2381 19.936L68.3638 19.9034L68.5078 19.8589L68.6714 19.8022L68.8561 19.7332L69.0634 19.6516L69.295 19.5569L69.5528 19.4489L69.839 19.3272L70.1555 19.1913L70.5048 19.0408L70.889 18.8756L71.3106 18.6952L71.7718 18.4996L72.2749 18.289L72.8218 18.0634L73.414 17.8237L74.0526 17.5706L74.738 17.3056L75.4694 17.0306L76.2453 16.748L77.0624 16.4609L77.916 16.173L78.7994 15.8888L79.7042 15.6135L80.6196 15.3527L81.5329 15.1127L82.4294 14.9L83.2927 14.7212L84.1054 14.5826L84.8495 14.4901L85.5072 14.4487L86.0618 14.4621L86.4984 14.5328L86.8053 14.6613L86.9739 14.8466L87 15.0856L86.8835 15.374L86.6286 15.7057L86.2436 16.0736L85.7404 16.47L85.1334 16.8868L84.4391 17.3159L83.6749 17.7497L82.8585 18.1814L82.0071 18.6047L81.1367 19.0147L80.2618 19.4073L79.3949 19.7795L78.5467 20.1293L77.7257 20.4555L76.9387 20.7577L76.1904 21.036L75.4844 21.2909L74.8226 21.5236L74.206 21.7352L73.6345 21.9271L73.1074 22.1009L72.6237 22.258L72.1818 22.3999L71.7798 22.5282L71.4159 22.6442L71.0883 22.7493L70.7949 22.8447L70.534 22.9316L70.3039 23.0111L70.1031 23.0841L69.9302 23.1516L69.7841 23.2145L69.6639 23.2735L69.569 23.3294L69.4988 23.383L69.4534 23.435L69.4327 23.486L69.4315 23.5022Z" stroke="black" stroke-width="2"/>
<path fill-rule="evenodd" clip-rule="evenodd" d="M30.5238 47.0009V47.0009L30.5325 47.1162L30.5584 47.2321L30.6016 47.3491L30.6621 47.4676L30.74 47.5884L30.8351 47.7119L30.9475 47.8386L31.0771 47.9692L31.2239 48.1041L31.3878 48.2439L31.5685 48.3891L31.7658 48.5403L31.9794 48.6979L32.2089 48.8625L32.4537 49.0344L32.713 49.2141L32.9861 49.4019L33.2717 49.5981L33.5687 49.8029L33.8755 50.0165L34.1904 50.2388L34.5113 50.4698L34.8359 50.709L35.1616 50.9562L35.4857 51.2107L35.805 51.4717L36.1161 51.7383L36.4157 52.0092L36.6999 52.2831L36.9651 52.5585L37.2076 52.8337L37.4237 53.1067L37.6098 53.3756L37.7628 53.6384L37.8798 53.893L37.9583 54.1373L37.9965 54.3694L37.9931 54.5875L37.9473 54.7898L37.8592 54.975L37.7295 55.1419L37.5594 55.2896L37.3508 55.4175L37.1063 55.5256L36.8288 55.6138L36.5215 55.6825L36.1882 55.7326L35.8327 55.7648L35.4587 55.7804L35.0702 55.7807L34.6711 55.7673L34.2649 55.7417L33.8552 55.7055L33.4451 55.6604L33.0375 55.608L32.635 55.55L32.24 55.488L31.8544 55.4234L31.4798 55.3575L31.1178 55.2918L30.7693 55.2274L30.4353 55.1654L30.1165 55.1068L29.8133 55.0526L29.526 55.0036L29.2548 54.9605L28.9997 54.924L28.7607 54.8947L28.5375 54.8733L28.3299 54.8602L28.1378 54.8559L27.9607 54.8608L27.7983 54.8755L27.6503 54.9002L27.5163 54.9355L27.3958 54.9816L27.2886 55.039L27.1942 55.108L27.1122 55.189L27.0422 55.2824L26.984 55.3886L26.937 55.508L26.9009 55.6409L26.8753 55.7878L26.8599 55.9491L26.8542 56.125L26.8577 56.3159L26.8702 56.5222L26.891 56.7442L26.9196 56.982L26.9555 57.2358L26.9981 57.5057L27.0467 57.7917L27.1006 58.0937L27.1588 58.4113L27.2206 58.7441L27.2848 59.0914L27.3505 59.4525L27.4163 59.8261L27.4811 60.2109L27.5434 60.6053L27.6018 61.0072L27.6546 61.4145L27.7004 61.8245L27.7373 62.2344L27.7639 62.641L27.7783 63.0409L27.7792 63.4303L27.7648 63.8056L27.7339 64.1628L27.6854 64.4981L27.6181 64.8075L27.5315 65.0876L27.4251 65.3348L27.2987 65.5463L27.1526 65.7196L26.9872 65.8526L26.8034 65.9441L26.6024 65.9932L26.3856 66L26.1545 65.9651L25.9111 65.8897L25.6573 65.7756L25.3951 65.6254L25.1266 65.4418L24.8538 65.228L24.5788 64.9875L24.3034 64.7239L24.0292 64.4411L23.758 64.1426L23.4911 63.8322L23.2296 63.5135L22.9746 63.1896L22.7268 62.8639L22.4869 62.5391L22.2553 62.2178L22.0323 61.9024L21.818 61.5948L21.6125 61.297L21.4156 61.0104L21.2272 60.7363L21.0468 60.4758L20.8743 60.2299L20.7092 59.9991L20.5511 59.7842L20.3994 59.5855L20.2537 59.4035L20.1135 59.2383L19.9783 59.0901L19.8474 58.9591L19.7204 58.8453L19.5966 58.7488L19.4757 58.6696L19.3569 58.6077L19.2399 58.5631L19.1239 58.5358L19.0086 58.5258L18.8933 58.5331L18.7774 58.5576L18.6606 58.5995L18.5422 58.6586L18.4216 58.7351L18.2983 58.8288L18.1719 58.9398L18.0417 59.0681L17.9071 59.2136L17.7677 59.3761L17.623 59.5554L17.4723 59.7515L17.3152 59.9638L17.1513 60.1921L16.9799 60.4357L16.8009 60.6939L16.6138 60.9659L16.4182 61.2506L16.2141 61.5467L16.0012 61.8528L15.7796 62.1671L15.5493 62.4876L15.3107 62.812L15.0642 63.1378L14.8103 63.4621L14.5497 63.7819L14.2836 64.0939L14.013 64.3945L13.7392 64.6801L13.4639 64.947L13.1887 65.1914L12.9154 65.4097L12.6461 65.5983L12.3827 65.7541L12.1274 65.874L11.8822 65.9557L11.6491 65.9972L11.4299 65.9971L11.2263 65.9547L11.0397 65.87L10.8713 65.7435L10.7221 65.5765L10.5925 65.371L10.4829 65.1292L10.3931 64.8542L10.3228 64.5492L10.2714 64.2178L10.2378 63.8638L10.2209 63.4912L10.2194 63.1037L10.2318 62.7052L10.2565 62.2995L10.2919 61.8899L10.3364 61.4797L10.3882 61.0718L10.4458 60.6688L10.5075 60.2731L10.572 59.8867L10.6378 59.5112L10.7036 59.148L10.7681 58.7984L10.8304 58.4633L10.8892 58.1432L10.9438 57.8388L10.9933 57.5502L11.0369 57.2777L11.0739 57.0213L11.1038 56.781L11.1259 56.5565L11.1397 56.3477L11.1447 56.1544L11.1405 55.9761L11.1266 55.8125L11.1027 55.6634L11.0683 55.5283L11.0231 55.4067L10.9666 55.2985L10.8985 55.203L10.8185 55.1201L10.7261 55.0492L10.6209 54.99L10.5026 54.9421L10.3707 54.9051L10.225 54.8788L10.0649 54.8625L9.89021 54.856L9.70048 54.8589L9.49542 54.8706L9.27474 54.8908L9.03822 54.9188L8.78568 54.9542L8.51704 54.9963L8.23232 55.0444L7.93164 55.0979L7.61528 55.1558L7.28368 55.2173L6.93747 55.2814L6.57751 55.347L6.20487 55.4129L5.8209 55.4778L5.42724 55.5404L5.02583 55.5991L4.61889 55.6525L4.20899 55.6988L3.79898 55.7366L3.39202 55.764L2.99152 55.7795L2.60111 55.7814L2.22457 55.7684L1.86579 55.7388L1.52868 55.6917L1.21705 55.626L0.934555 55.5409L0.684574 55.4361L0.470118 55.3113L0.293739 55.1667L0.15745 55.0028L0.0626641 54.8205L0.010148 54.6208L0 54.4052L0.0316516 54.1752L0.10389 53.9327L0.214905 53.6796L0.362347 53.418L0.54341 53.1499L0.754917 52.8774L0.993414 52.6024L1.25526 52.3269L1.53672 52.0527L1.83407 51.7811L2.14362 51.5138L2.46183 51.2518L2.78536 50.9963L3.11105 50.7479L3.43602 50.5073L3.75767 50.275L4.07363 50.0513L4.38184 49.8364L4.6805 49.6301L4.96805 49.4326L5.24316 49.2434L5.50475 49.0625L5.75189 48.8893L5.98385 48.7236L6.20003 48.565L6.39999 48.4128L6.58337 48.2667L6.74991 48.126L6.89943 47.9904L7.03181 47.8592L7.14695 47.7318L7.24483 47.6079L7.32541 47.4867L7.38869 47.3678L7.43467 47.2506L7.46336 47.1346L7.47475 47.0192L7.46886 46.9039L7.44569 46.7882L7.40522 46.6714L7.34745 46.5531L7.27238 46.4327L7.18001 46.3097L7.07036 46.1835L6.94346 46.0536L6.79939 45.9194L6.63826 45.7805L6.46022 45.6361L6.26551 45.4859L6.05444 45.3294L5.82745 45.166L5.58508 44.9953L5.328 44.8168L5.05709 44.6303L4.77337 44.4355L4.47809 44.232L4.17274 44.0198L3.85903 43.7989L3.53896 43.5693L3.21477 43.3314L2.88901 43.0854L2.56446 42.8321L2.2442 42.572L1.93152 42.3063L1.62989 42.0359L1.34296 41.7624L1.07446 41.4871L0.828127 41.2118L0.607638 40.9383L0.416517 40.6686L0.258041 40.4047L0.135145 40.1486L0.0503317 39.9025L0.00559058 39.6684L0.00233098 39.448L0.0413302 39.243L0.122703 39.055L0.245895 38.8852L0.409696 38.7344L0.612276 38.6032L0.851248 38.492L1.12374 38.4007L1.42647 38.3289L1.75588 38.2759L2.10817 38.2409L2.47948 38.2228L2.86589 38.2201L3.26358 38.2314L3.66886 38.2552L4.07825 38.2899L4.48851 38.3337L4.89669 38.385L5.30012 38.4421L5.69648 38.5036L6.08372 38.568L6.46013 38.6337L6.82426 38.6995L7.17495 38.7642L7.51128 38.8267L7.83255 38.8858L8.13826 38.9408L8.42809 38.9907L8.70186 39.0348L8.95952 39.0724L9.20113 39.1029L9.42683 39.1256L9.63684 39.14L9.83142 39.1458L10.0109 39.1423L10.1756 39.1292L10.3258 39.1061L10.4621 39.0726L10.5847 39.0282L10.694 38.9727L10.7904 38.9056L10.8744 38.8265L10.9462 38.7351L11.0063 38.6309L11.0551 38.5136L11.0929 38.3829L11.1201 38.2382L11.1371 38.0793L11.1444 37.9058L11.1422 37.7173L11.1312 37.5134L11.1117 37.294L11.0843 37.0587L11.0495 36.8075L11.0079 36.5401L10.9602 36.2566L10.9071 35.9572L10.8495 35.6421L10.7883 35.3116L10.7243 34.9666L10.6588 34.6076L10.5929 34.236L10.5279 33.8528L10.4651 33.4599L10.406 33.059L10.3521 32.6524L10.3052 32.2426L10.2667 31.8324L10.2384 31.4251L10.2219 31.0239L10.2188 30.6326L10.2306 30.2548L10.2588 29.8944L10.3044 29.5554L10.3687 29.2416L10.4522 28.9567L10.5554 28.704L10.6786 28.4866L10.8217 28.3071L10.984 28.1675L11.1649 28.0694L11.3633 28.0135L11.5777 28L11.8066 28.0284L12.0481 28.0974L12.3005 28.2054L12.5615 28.3501L12.8291 28.5286L13.1013 28.7378L13.3761 28.9743L13.6516 29.2344L13.926 29.5145L14.1978 29.8107L14.4655 30.1194L14.728 30.4371L14.9841 30.7603L15.233 31.086L15.4742 31.4111L15.7072 31.7331L15.9315 32.0496L16.1472 32.3585L16.3541 32.658L16.5524 32.9465L16.7422 33.2227L16.9238 33.4854L17.0975 33.7337L17.2638 33.9669L17.423 34.1844L17.5756 34.3857L17.7222 34.5704L17.8633 34.7383L17.9993 34.8892L18.1308 35.0229L18.2584 35.1394L18.3826 35.2387L18.504 35.3206L18.6231 35.3853L18.7404 35.4327L18.8564 35.4627L18.9719 35.4755L19.0871 35.471L19.2028 35.4492L19.3195 35.4101L19.4376 35.3537L19.5578 35.28L19.6806 35.189L19.8065 35.0807L19.9361 34.9552L20.0699 34.8125L20.2085 34.6527L20.3524 34.476L20.5021 34.2826L20.6581 34.0728L20.8209 33.8471L20.9911 33.6059L21.1688 33.3499L21.3547 33.0801L21.5489 32.7973L21.7516 32.5029L21.9631 32.1983L22.1833 31.8852L22.4122 31.5655L22.6495 31.2415L22.8948 30.9158L23.1476 30.591L23.4071 30.2703L23.6725 29.9569L23.9425 29.6542L24.2158 29.366L24.491 29.0959L24.7664 28.8476L25.0401 28.6249L25.3102 28.4313L25.5746 28.2701L25.8313 28.1443L26.0783 28.0564L26.3134 28.0084L26.535 28.0018L26.7412 28.0374L26.9306 28.1154L27.1019 28.2353L27.2543 28.396L27.387 28.5955L27.4998 28.8317L27.5927 29.1017L27.666 29.4021L27.7204 29.7296L27.7568 30.0802L27.7763 30.4501L27.7802 30.8355L27.7699 31.2324L27.747 31.6373L27.7132 32.0465L27.67 32.4568L27.6193 32.8652L27.5625 33.2692L27.5013 33.6662L27.4372 34.0542L27.3715 34.4316L27.3056 34.7967L27.2408 35.1486L27.1781 35.4861L27.1187 35.8086L27.0633 36.1155L27.013 36.4067L26.9684 36.6817L26.9303 36.9407L26.8992 37.1836L26.8759 37.4105L26.8608 37.6218L26.8543 37.8176L26.857 37.9983L26.8693 38.1641L26.8916 38.3155L26.9243 38.4529L26.9678 38.5765L27.0224 38.6869L27.0886 38.7844L27.1667 38.8693L27.2571 38.9421L27.3603 39.0031L27.4765 39.0528L27.6061 39.0914L27.7496 39.1195L27.9074 39.1373L28.0798 39.1453L28.2671 39.1439L28.4697 39.1335L28.6879 39.1147L28.9218 39.0879L29.1718 39.0536L29.4379 39.0126L29.7201 38.9654L30.0182 38.9127L30.3321 38.8554L30.6613 38.7944L31.0052 38.7306L31.3631 38.6652L31.7338 38.5993L32.116 38.5341L32.5083 38.4711L32.9086 38.4116L33.3148 38.3573L33.7244 38.3098L34.1346 38.2705L34.5423 38.2414L34.9441 38.2239L35.3363 38.2196L35.7153 38.2302L36.0772 38.257L36.418 38.3013L36.734 38.364L37.0213 38.4459L37.2767 38.5476L37.497 38.6692L37.6796 38.8107L37.8224 38.9716L37.9238 39.151L37.9831 39.348L38 39.5612L37.9749 39.7891L37.9091 40.0297L37.8041 40.2812L37.6623 40.5416L37.4863 40.8088L37.2795 41.0808L37.045 41.3554L36.7866 41.631L36.5081 41.9055L36.213 42.1776L35.9051 42.4457L35.5881 42.7086L35.2652 42.9652L34.9396 43.2148L34.6144 43.4567L34.292 43.6903L33.975 43.9153L33.6654 44.1317L33.3652 44.3393L33.0757 44.5383L32.7986 44.7288L32.5348 44.911L32.2853 45.0853L32.0508 45.2522L31.8321 45.412L31.6295 45.5651L31.4435 45.7122L31.2743 45.8537L31.122 45.9901L30.9869 46.122L30.869 46.2499L30.7684 46.3743L30.6851 46.4959L30.619 46.6151L30.5703 46.7325L30.5388 46.8487L30.5247 46.9642L30.5238 47.0009Z" fill="#960651"/>
</svg>
